<?xml version="1.0" encoding="UTF-8"?>
<svg id="Calque_1" data-name="Calque 1" xmlns="http://www.w3.org/2000/svg" viewBox="0 0 556.9 130.11">
  <defs>
    <style>
      .cls-1 {
        fill: #252d37;
      }
    </style>
  </defs>
  <path class="cls-1" d="M262.22,38.8s-.05.08-.08.13c-2.67,4.26-8.89,4.17-11.39-.2-.02-.04-.05-.08-.07-.13L226.85,0h-38.78l36.13,59.37c1.51,2.35,4.41,6.53,8.7,12.54,3.53,5.36,5.74,9.41,6.62,12.15v9.41l-.19,36.64h34.05v-36.64c0-2.09-.07-3.85-.19-5.29v-4.12c.76-2.61,2.96-6.66,6.62-12.15l2.27-3.14c.76-1.04,1.83-2.55,3.22-4.51,1.39-1.96,2.46-3.59,3.22-4.9L324.64,0h-38.96l-23.46,38.8Z"/>
  <path class="cls-1" d="M380.82,0h-33.86v130.11h135.4v-31.35h-94.92c-3.66,0-6.62-2.96-6.62-6.62V0Z"/>
  <rect class="cls-1" x="523.04" width="33.86" height="130.11"/>
  <path class="cls-1" d="M129.09,49.38H40.46c-3.66,0-6.62-2.96-6.62-6.62V0H0v130.11h33.84v-42.76c0-3.66,2.96-6.62,6.62-6.62h88.62c3.66,0,6.62,2.96,6.62,6.62v42.76h34.02V0h-34.02v42.76c0,3.66-2.96,6.62-6.62,6.62Z"/>
</svg>